<svg xmlns="http://www.w3.org/2000/svg" viewBox="6.4 -4.1 115.41 115.41">
  <!-- The RUCKUS dog and bars, on a white tile so the mark stays visible on
       the dark theme, with a black border so the tile stands apart from the
       QR code on the light theme. -->
  <defs>
    <style>
      .cls-1 {
        fill: #231f20;
      }

      .cls-2 {
        fill: #f47920;
      }
    </style>
  </defs>
  <rect x="8.4" y="-2.1" width="111.41" height="111.41" rx="23.39" fill="#fff" stroke="#000" stroke-width="4"/>
  <g>
    <path class="cls-1" d="M82.14,37.07l-1.24-1.58-6.75,2.88-2.84-1.93-4.55.98-4.99,2.23-1.29,2.88,2.4,2.83,1.83.54,4.85-5.04-4.29,7-3.3-1.07-.76-1.11-5.54,6.86-17.24,4.54c-.6,0-1.49.02-1.49.02-15.97-6.84-6.79-16.01-6.7-16.12-.11.06-13.1,6.62,1.58,18.71l-2.75,3.12-1.95,8.82-4.94,3.92-5.41,11.75h5.13s.84-1.98.84-1.98l-1.99-.49,3.24-5.64c1.69-.9,7.72-3.33,8.91-4.15l8.02-10.09,8.98,2.83,1.26-5.58.44.93.69,7.96-3.8,17.01h5.37v-1.73l-2.01-.85,6.53-14.66s9.93-6.33,9.92-6.39c-.03-.16,4.82-15.09,4.82-15.09l6-.51,1.76-2.41-7.11.02,8.25-6.08.08-3.32Z" />
    <g>
      <polygon class="cls-1" points="60.07 71.78 66.6 67.64 59.54 84.1 61.55 84.87 61.55 86.53 56.82 86.53 60.07 71.78" />
      <path class="cls-1" d="M43.59,75.49l-7.47,3.79-2.75,4.86,2.09.58-.84,1.79h-4.6s3.58-9.52,3.58-9.52c.35-.21,4.13-3.6,4.13-3.6l.32-2.14,3.5-4.39,5.19,1.65-3.14,6.98Z" />
      <polygon class="cls-2" points="71.87 56.11 56.9 50.48 58.39 48.61 72.51 53.68 71.87 56.11" />
    </g>
  </g>
  <g>
    <polygon class="cls-2" points="87.12 36.89 87.12 46.47 91.7 46.47 91.7 33.59 87.12 36.89" />
    <polygon class="cls-2" points="96.94 29.83 96.94 46.47 101.52 46.47 101.52 26.53 96.94 29.83" />
    <polygon class="cls-2" points="107 22.59 107 46.47 111.58 46.47 111.58 19.29 107 22.59" />
  </g>
  
</svg>
